<?xml version="1.0"?>
<svg xmlns="http://www.w3.org/2000/svg" xmlns:xlink="http://www.w3.org/1999/xlink" xmlns:svgjs="http://svgjs.com/svgjs" version="1.1" width="512" height="512" x="0" y="0" viewBox="0 0 512.003 512.003" style="enable-background:new 0 0 512 512" xml:space="preserve"><g>
<g xmlns="http://www.w3.org/2000/svg">
	<g>
		<path d="M378.87,230.42c0.569-2.816,0.858-5.681,0.865-8.554c-1.367-20.961-11.091-40.495-26.991-54.221    c0.941,0.104,1.821,0.16,2.79,0.288c14.993,2.01,29.078-7.642,32.615-22.35s-4.622-29.708-18.89-34.734    c-11.039-4.122-22.555-6.832-34.274-8.063c1.318-5.726,2.016-11.578,2.083-17.454c0-23.175-16.896-44.175-42.667-53.833v-5.9    c0-14.138-11.462-25.6-25.6-25.6c-14.138,0-25.6,11.461-25.6,25.6v1.467c-2.829,0.492-5.581,1.108-8.254,1.85l-4.45-11.117    c-4.494-11.239-17.006-16.986-28.459-13.072c-11.454,3.914-17.832,16.117-14.507,27.755l6.867,24.041    c-4.298,5.692-7.988,11.818-11.01,18.279c-0.346-19.246-5.573-38.088-15.19-54.763C161.044,7.68,147.863,0.048,133.58,0h-33.508    c-6.585,0.006-12.6,3.738-15.53,9.636c-2.93,5.898-2.271,12.945,1.701,18.198c9.317,12.425,20.425,31,20.425,48.967v115.031    c-15.958,17.09-34.133,49.142-34.133,106.835c0,76.175,9.2,90.258,18.2,93.983c1.489,0.621,3.087,0.941,4.7,0.942    c0.48-0.024,0.958-0.078,1.431-0.16c2.857,6.381,6.132,12.567,9.803,18.517V473.6c-0.069,16.319,10.226,30.883,25.633,36.263    c15.407,5.38,32.53,0.39,42.634-12.425c7.702,9.833,19.746,15.25,32.213,14.492c12.467-0.759,23.764-7.598,30.217-18.292    c4.755,0.758,9.556,1.191,14.37,1.296c25.239,0.083,50.359,3.468,74.721,10.067c14.576,4.141,29.602,6.491,44.746,7    c20.525,0,68.267-9.975,68.267-102.4C439.468,366.889,418.217,290.206,378.87,230.42z M362.668,221.867    c0.073,2.119-0.086,4.24-0.473,6.324c-0.225,0.382-0.419,0.78-0.581,1.193c-0.439,1.623-1.29,3.104-2.472,4.299    c-0.091,0.086-0.195,0.167-0.29,0.251c-0.433,0.381-0.893,0.73-1.377,1.043c-0.263,0.173-0.52,0.347-0.81,0.511    c-0.779,0.441-1.592,0.821-2.43,1.136c-0.267,0.102-0.585,0.186-0.869,0.282c-0.97,0.321-1.955,0.591-2.953,0.809    c-0.318,0.071-0.619,0.147-0.954,0.212c-1.42,0.275-3.021,0.5-4.814,0.667c-0.341,0.032-0.711,0.054-1.067,0.082    c-1.963,0.152-4.076,0.257-6.511,0.257c-1.578,0-3.097-0.078-4.552-0.221c-0.11-0.01-0.206-0.034-0.316-0.045    c-1.339-0.143-2.633-0.33-3.856-0.578l-0.287-0.071c-1.195-0.252-2.339-0.543-3.409-0.881c-0.203-0.064-0.38-0.143-0.578-0.209    c-0.909-0.305-1.784-0.629-2.592-0.986c-0.355-0.158-0.666-0.332-1-0.498c-0.569-0.282-1.132-0.563-1.64-0.866    c-0.444-0.267-0.837-0.546-1.231-0.826c-0.31-0.218-0.627-0.433-0.906-0.658c-0.409-0.334-0.798-0.691-1.166-1.07    c-0.164-0.165-0.331-0.329-0.478-0.495c-0.33-0.376-0.628-0.777-0.893-1.201c-0.097-0.155-0.194-0.309-0.276-0.463    c-0.143-0.26-0.268-0.53-0.373-0.807c-0.227-0.656-0.32-1.351-0.275-2.043c0.017-0.32,0.059-0.639,0.126-0.953    c0.088-0.384,0.205-0.761,0.35-1.127c0.178-0.528,0.401-1.04,0.667-1.529l0.116-0.182c0.824-1.403,1.828-2.692,2.985-3.834    l0.004-0.005l0.003-0.004l0.009-0.013l0.005-0.006l0.003-0.002c1.346-1.38,2.582-2.862,3.699-4.432    c0.195-0.265,0.452-0.497,0.638-0.767c0.395-0.563,0.686-1.173,1.049-1.752c0.036-0.055,0.087-0.093,0.121-0.149    c0.204-0.331,0.359-0.684,0.554-1.019c0.929-1.571,1.758-3.198,2.484-4.872c0.029-0.064,0.08-0.11,0.107-0.175    c0.157-0.375,0.26-0.763,0.408-1.14c0.592-1.514,1.15-3.032,1.594-4.591c0.026-0.082,0.083-0.144,0.107-0.228l0.017-0.05    c0.171-0.612,0.263-1.239,0.409-1.856c0.321-1.327,0.645-2.645,0.876-3.986h0.003l-0.001-0.02    c0.106-0.617,0.168-1.235,0.256-1.854l0.045-0.134v-0.009l0.004-0.025c0.092-0.667,0.179-1.333,0.258-2l0.014-0.131l0.035-0.289    c0.117-1.122,0.189-2.228,0.255-3.343c0.005-0.063,0.043-0.115,0.046-0.179c0.042-0.65,0.071-1.3,0.096-1.95l0.007-0.327    l0.01-0.448l0.018-0.774c0.004-0.283,0.018-0.566,0.019-0.848v-0.07l-0.003-0.012c0-0.214-0.016-0.418-0.016-0.631l0.031-0.14    c0.003-0.095-0.041-0.189-0.043-0.285l-0.01-0.393c-0.011-1.354-0.036-2.66-0.101-3.932c-0.023-0.429-0.048-0.847-0.076-1.272    c-0.049-0.763-0.075-1.579-0.138-2.302C348.655,182.744,360.84,201.14,362.668,221.867z M323.98,119.475l0.016-0.003    c1.508-0.006,3.02-0.008,4.538-0.006c12,0.585,23.826,3.107,35.021,7.467c3.405,1.181,6.127,3.785,7.459,7.133    c1.347,3.3,1.194,7.022-0.421,10.2c-2.384,4.758-7.532,7.471-12.804,6.75c-13.875-2.835-28.272-1.64-41.49,3.442l-0.039,0.014    l-0.075,0.027c-1.011,0.531-1.903,1.264-2.62,2.152c-0.078,0.092-0.201,0.128-0.276,0.223c-0.103,0.131-0.112,0.306-0.207,0.442    c-0.563,0.802-0.981,1.695-1.237,2.641c-0.052,0.194-0.143,0.364-0.182,0.56c-0.207,0.992-0.234,2.013-0.079,3.015l1.483,8.842    c0.089,0.782,0.16,1.686,0.234,2.569c0.055,0.686,0.107,1.37,0.146,2.083c0.044,0.753,0.074,1.532,0.097,2.329    c0.036,1.546,0.033,3.123-0.035,4.727c-0.013,0.304-0.024,0.608-0.04,0.914c-0.104,1.957-0.31,3.908-0.616,5.844l-0.057,0.291    c-0.307,1.801-0.731,3.581-1.269,5.327c-0.051,0.168-0.109,0.333-0.164,0.501c-0.084,0.255-0.181,0.505-0.271,0.758    c-0.474,1.35-1.044,2.664-1.706,3.933c-0.257,0.489-0.505,0.982-0.791,1.45c-0.871,1.501-1.919,2.892-3.12,4.144l-0.037,0.047    l-0.134,0.154c-1.112,1.124-2.154,2.314-3.12,3.565l-0.05,0.057l-0.008,0.018l-0.056,0.064c-0.464,0.067-0.931,0.132-1.401,0.196    c-4.375,0.59-8.95,1.069-13.781,1.392c-0.64,0.043-1.309,0.066-1.957,0.104c-5.163,0.303-10.509,0.494-16.13,0.494    c-1.795,0-3.704-0.134-5.652-0.332c-0.92-0.095-1.885-0.246-2.838-0.382c-1.031-0.145-2.059-0.288-3.106-0.474    c-1.174-0.211-2.364-0.459-3.558-0.72c-0.83-0.181-1.658-0.365-2.487-0.567c-1.356-0.331-2.709-0.688-4.059-1.07    c-0.546-0.155-1.084-0.316-1.623-0.478c-6.396-1.821-12.527-4.47-18.238-7.879c-1.045-1.083-2.165-2.092-3.351-3.019    c-0.023-0.299-0.028-0.6-0.015-0.9c0.028-0.185,0.132-0.34,0.148-0.53c0.449-3.453,1.386-6.824,2.784-10.013    c0.081-0.197,0.154-0.385,0.238-0.586c0.718-1.731,1.584-3.578,2.536-5.481c0.232-0.464,0.469-0.932,0.715-1.407    c1.037-1.999,2.167-4.057,3.436-6.184l0.329-0.542c4.809-7.911,10.295-15.391,16.395-22.356c0.209-0.239,0.424-0.477,0.636-0.716    c2.132-2.413,4.347-4.802,6.671-7.125l0.011-0.011c2.249-2.233,4.615-4.345,7.087-6.327c0.44-0.354,0.879-0.744,1.319-1.083    c1.952-1.498,3.978-2.897,6.071-4.192c0.847-0.529,1.695-1.066,2.543-1.547c1.756-1.002,3.518-1.886,5.283-2.695    c1.083-0.495,2.167-0.959,3.253-1.39c1.672-0.661,3.35-1.27,5.039-1.789c1.069-0.331,2.14-0.614,3.211-0.894    c1.82-0.469,3.644-0.911,5.492-1.25c0.791-0.148,1.586-0.258,2.379-0.384c2.169-0.337,4.346-0.644,6.564-0.846    c0.34-0.032,0.683-0.049,1.024-0.079C312.5,119.63,318.118,119.495,323.98,119.475z M183.468,171.433    c0-50.583,9.025-86.725,26.825-107.408l0,0c1.875-2.175,2.528-5.148,1.738-7.908L203.939,27.8    c-0.827-2.901,0.762-5.941,3.616-6.918c2.854-0.977,5.973,0.452,7.097,3.252l7.446,18.608c0.841,2.103,2.483,3.785,4.565,4.676    c2.082,0.891,4.433,0.918,6.535,0.074c6.181-2.414,12.682-3.911,19.296-4.442c4.401-0.394,7.774-4.081,7.775-8.5V25.6    c0-4.713,3.82-8.533,8.533-8.533s8.533,3.82,8.533,8.533v12.058c0.001,3.8,2.513,7.142,6.163,8.2    c21.833,6.308,36.504,22.175,36.504,39.475c-0.071,5.797-0.886,11.561-2.425,17.15l-0.154,0.006    c-5.75,0.089-11.491,0.482-17.199,1.179c-0.383,0.048-0.767,0.088-1.15,0.14c-2.42,0.333-4.855,0.765-7.299,1.276    c-0.858,0.177-1.717,0.369-2.574,0.57c-2.211,0.525-4.429,1.118-6.654,1.828c-1.026,0.325-2.05,0.715-3.075,1.082    c-1.583,0.571-3.168,1.201-4.755,1.887c-1.343,0.577-2.684,1.19-4.025,1.853c-1.819,0.898-3.64,1.884-5.461,2.957    c-0.534,0.315-1.069,0.538-1.603,0.868c2.421-7.287,6.577-13.73,13.708-13.73c4.713,0,8.533-3.821,8.533-8.533    c0-4.713-3.821-8.533-8.533-8.533c-25.347,0-33.207,28.471-34.051,47.679c-1.049,1.095-2.095,2.209-3.148,3.368    c-0.71,0.78-1.406,1.561-2.102,2.352c-1.165,1.327-2.321,2.686-3.47,4.079c-0.782,0.943-1.568,1.876-2.326,2.829    c-1.542,1.931-3.052,3.904-4.531,5.918c-0.349,0.476-0.683,0.95-1.025,1.427c-7.995,10.47-14.157,22.219-18.223,34.749h-5.262    c-0.216-0.079-0.468-0.162-0.685-0.241c-1.12-0.406-2.292-0.809-3.439-1.21c-1.535-0.538-2.995-1.06-4.617-1.624    c-3.421-1.18-7.041-2.431-10.805-3.811l-0.182-0.067V171.433z M100.072,17.067h33.508c8.195,0.04,15.753,4.428,19.85,11.525    c8.482,14.651,12.956,31.279,12.971,48.208v88.317c-4.322,1.401-8.179,2.837-11.769,4.383c-10.922-0.85-21.81,2.017-30.897,8.135    V76.8C123.735,54.133,110.768,32.092,100.072,17.067z M108.306,367.702l-0.052,0.127c-1.936,4.629-4.095,6.858-7.778,7.413    c-0.059,0.008-0.104,0.054-0.162,0.064c-0.722,0.104-1.45,0.158-2.179,0.162c-0.382,0-0.763,0.025-1.142,0.075    c-2.396-4.992-7.392-21.983-7.392-76.875c0-54.881,17.318-83.171,31.271-97.081c0.097-0.087,0.227-0.118,0.32-0.211    c13.65-13.467,26.879-16.158,32-14.725c0.121,0.035,0.248,0.009,0.37,0.037c0.148,0.053,0.371,0.087,0.488,0.146    c11.242,5.439,22.846,10.094,34.729,13.933c1.456,0.501,2.68,0.941,4.007,1.407c1.285,0.449,2.583,0.904,3.804,1.346    c5.003,1.637,9.814,3.812,14.349,6.487c0.23,0.264,0.378,0.576,0.629,0.827c1.057,0.98,2.175,1.892,3.347,2.73    c0.42,0.485,0.8,1.003,1.136,1.549c0.07,0.124,0.133,0.268,0.2,0.401c0.372,0.758,0.659,1.554,0.856,2.374    c0.053,0.212,0.123,0.388,0.168,0.616c0.22,1.107,0.329,2.234,0.326,3.363c0,29.533-47.5,68.342-73.021,89.192    c-8.05,6.575-14.408,11.767-18.346,15.708c-1.056,1.057-2.051,2.174-2.979,3.346c-0.085,0.108-0.152,0.224-0.236,0.332    c-5.438,7.892-9.248,16.79-11.206,26.172C110.861,360.377,109.69,364.078,108.306,367.702z M166.401,473.6    c-0.012,11.777-9.556,21.321-21.333,21.333c-11.777-0.012-21.321-9.556-21.333-21.333v-38.93    c12.336,13.558,26.736,25.084,42.667,34.151V473.6z M204.801,494.933c-10.212-0.015-18.984-7.258-20.93-17.283    c11.213,5.045,22.839,9.116,34.751,12.166C214.782,493.131,209.874,494.948,204.801,494.933z M303.161,482.442    c-16.964-3.109-34.18-4.64-51.427-4.575c-5.809-0.166-11.593-0.833-17.287-1.992c-0.077-0.017-0.135-0.077-0.213-0.091    c-19.301-3.783-37.926-10.437-55.254-19.742c-2.318-1.247-4.549-2.569-6.774-3.896c-0.956-0.572-1.911-1.123-2.865-1.719    c-1.842-1.147-3.63-2.341-5.406-3.544c-1.451-0.984-2.894-2-4.329-3.047c-1.57-1.141-3.138-2.282-4.651-3.469    c-1.79-1.401-3.541-2.898-5.293-4.398c-2.203-1.893-4.338-3.838-6.406-5.835c-1.406-1.352-2.807-2.711-4.176-4.135    c-1.516-1.585-2.99-3.202-4.421-4.851c-1.004-1.145-1.975-2.342-2.951-3.531c-2.74-3.353-5.32-6.821-7.738-10.405    c-4.107-5.959-7.739-12.232-10.86-18.761c0.169-0.11,0.299-0.257,0.465-0.371c1.056-0.712,2.052-1.508,2.979-2.381    c0.503-0.482,0.949-1.006,1.408-1.524c0.653-0.725,1.267-1.484,1.841-2.274c0.383-0.534,0.766-1.061,1.116-1.618    c0.598-0.951,1.142-1.937,1.654-2.945c0.486-0.954,0.933-1.916,1.354-2.901c0.326-0.766,0.658-1.528,0.951-2.307    c0.401-1.064,0.764-2.116,1.11-3.183l0.2-0.618c0.779-2.456,1.484-4.892,2.105-7.175c1.371-6.167,3.551-12.125,6.483-17.721    c0.983-1.671,2.167-3.214,3.526-4.596c3.333-3.333,9.7-8.533,17.075-14.558c1.836-1.5,3.734-3.052,5.667-4.639    c3.303,12.666,5.102,25.677,5.358,38.764c-1.103,16.897,7.296,33.001,21.783,41.767c1.17,0.587,2.462,0.892,3.771,0.892    c3.918-0.018,7.323-2.697,8.262-6.501c0.939-3.804-0.828-7.76-4.287-9.599c-6.661-4.426-11.014-11.58-11.883-19.53    c5.432,1.052,10.955,1.557,16.487,1.505c4.713,0.002,8.535-3.816,8.538-8.529s-3.816-8.535-8.529-8.538    c-5.913,0.1-11.805-0.747-17.45-2.509c-0.026-0.083-0.085-0.148-0.113-0.23c-1.196-13.403-3.717-26.653-7.527-39.558l0.639-0.555    c1.595-1.373,3.19-2.746,4.792-4.159c0.806-0.711,1.607-1.447,2.413-2.167c1.405-1.256,2.809-2.506,4.206-3.79    c0.863-0.794,1.709-1.609,2.567-2.413c1.324-1.24,2.652-2.472,3.958-3.735c0.898-0.868,1.768-1.758,2.655-2.636    c1.241-1.229,2.488-2.452,3.701-3.699c0.891-0.916,1.743-1.85,2.616-2.775l0.206-0.218c1.564,5.515,4.432,10.572,8.363,14.744    c4.002,5.734,6.112,12.575,6.033,19.567c0,4.713,3.821,8.533,8.533,8.533c4.713,0,8.533-3.82,8.533-8.533    c0-0.327-0.025-1.158-0.078-2.194c2.686,1.323,5.619,2.07,8.611,2.194c4.728,0.007,8.574-3.805,8.608-8.533    c0.015-2.255-0.87-4.422-2.458-6.022c-1.588-1.6-3.749-2.501-6.004-2.503c-7.445-3.534-14.134-8.477-19.697-14.557l-0.015-0.018    c-4.006-5.741-6.115-12.592-6.033-19.592l-0.019-0.092c0.731-0.991,1.391-1.993,2.086-2.99c0.862-1.236,1.741-2.469,2.544-3.713    c0.687-1.065,1.296-2.136,1.936-3.206c0.74-1.235,1.496-2.468,2.169-3.709c0.591-1.091,1.096-2.186,1.632-3.28    c0.602-1.229,1.221-2.454,1.749-3.686c0.476-1.109,0.857-2.22,1.269-3.331c0.455-1.224,0.926-2.448,1.299-3.675    c0.341-1.117,0.58-2.234,0.851-3.352c0.295-1.223,0.606-2.446,0.813-3.669c0.19-1.123,0.273-2.243,0.384-3.364    c0.091-0.916,0.278-1.834,0.315-2.749c0.667,0.24,1.378,0.423,2.055,0.654c0.996,0.336,1.988,0.641,2.997,0.954    c1.867,0.581,3.714,1.132,5.611,1.627c0.771,0.2,1.524,0.363,2.293,0.548c2.028,0.488,4.03,0.951,6.035,1.323    c0.894,0.167,1.734,0.268,2.612,0.41c1.76,0.282,3.518,0.578,5.212,0.754c2.442,0.275,4.897,0.422,7.354,0.439    c4.372,0,8.586-0.117,12.719-0.292c1.24-0.053,2.443-0.129,3.661-0.197c3.025-0.169,5.976-0.387,8.854-0.653    c0.695-0.065,1.452-0.087,2.138-0.158l0.009,0.047c0.142,1.521,0.441,3.023,0.893,4.482c0.068,0.223,0.14,0.445,0.215,0.667    c0.171,0.509,0.283,1.026,0.492,1.529c0.279,0.672,0.703,1.279,1.042,1.925c0.155,0.296,0.23,0.607,0.399,0.9    c0.107,0.185,0.262,0.347,0.374,0.53c0.525,0.842,1.099,1.654,1.718,2.43c0.39,0.498,0.785,0.989,1.214,1.465    c0.667,0.737,1.371,1.44,2.109,2.106c0.516,0.469,1.052,0.919,1.607,1.361c0.773,0.614,1.567,1.205,2.414,1.765    c0.651,0.432,1.332,0.832,2.024,1.23c0.859,0.494,1.721,0.979,2.64,1.42c0.797,0.384,1.634,0.721,2.473,1.064    c0.909,0.371,1.806,0.747,2.762,1.068c0.973,0.328,1.994,0.591,3.011,0.865c0.908,0.244,1.794,0.514,2.735,0.714    c0.478,0.102,0.968,0.181,1.454,0.272c-7.49,22.462-12.287,45.734-14.288,69.327c0.007,1.985,0.14,3.967,0.398,5.935    c-1.453,4.289-8.459,19.665-17.465,19.665c-4.713,0-8.533,3.82-8.533,8.533s3.82,8.533,8.533,8.533    c10.249-0.513,19.6-6.004,25.042-14.704c1.942,3.676,4.023,7.199,6.042,10.562c6.467,8.691,10.469,18.966,11.583,29.742    c-0.761,17.359-6.764,34.079-17.217,47.958C310.831,452.839,305.088,467.272,303.161,482.442z M371.201,494.933    c-13.794-0.525-27.474-2.716-40.742-6.525c-3.375-0.814-6.867-1.642-10.431-2.464c1.251-13.269,6.221-25.916,14.339-36.486    c8.584-12.374,14.755-26.258,18.189-40.922c7.222,5.725,13.479,12.57,18.532,20.277c-0.155,6.274-2.221,12.351-5.921,17.421    c-2.188,2.149-3.055,5.307-2.27,8.271c0.785,2.965,3.1,5.28,6.065,6.065c2.965,0.785,6.122-0.082,8.271-2.27    c3.135-3.286,5.564-7.179,7.136-11.44c3.418,3.148,7.797,5.053,12.43,5.406c4.557-0.001,8.309-3.581,8.524-8.133    c0.215-4.552-3.184-8.47-7.72-8.9c-0.704-0.242-5.104-2.116-10.237-12.383c-8.614-13.853-20.028-25.754-33.51-34.938    c-1.982-12.188-6.678-23.775-13.74-33.904c-6.468-8.691-10.469-18.966-11.583-29.742c0.099-5.151,0.592-10.288,1.476-15.364    c7.947,15.739,22.143,27.414,39.12,32.172c10.083,2.525,17.725,15.767,19.808,20.642c1.832,4.342,6.837,6.378,11.179,4.546    c4.342-1.832,6.378-6.837,4.546-11.179c-1.092-2.592-11.279-25.533-31.392-30.558c-28.379-7.1-36.296-44.242-36.375-44.617    c-0.054-0.268-0.227-0.47-0.305-0.727c2.542-9.567,5.097-18.033,6.752-23.323c4.733-0.2,9.426-0.965,13.977-2.28    c0.337-0.099,0.674-0.19,1.009-0.297c0.688-0.226,1.365-0.497,2.046-0.763c3.31-1.2,6.393-2.95,9.12-5.177    c34.417,55.708,52.904,123.8,52.904,162.258C422.401,483.85,390.322,494.933,371.201,494.933z" fill="#ffffff" data-original="#000000" style=""/>
	</g>
</g>
<g xmlns="http://www.w3.org/2000/svg">
</g>
<g xmlns="http://www.w3.org/2000/svg">
</g>
<g xmlns="http://www.w3.org/2000/svg">
</g>
<g xmlns="http://www.w3.org/2000/svg">
</g>
<g xmlns="http://www.w3.org/2000/svg">
</g>
<g xmlns="http://www.w3.org/2000/svg">
</g>
<g xmlns="http://www.w3.org/2000/svg">
</g>
<g xmlns="http://www.w3.org/2000/svg">
</g>
<g xmlns="http://www.w3.org/2000/svg">
</g>
<g xmlns="http://www.w3.org/2000/svg">
</g>
<g xmlns="http://www.w3.org/2000/svg">
</g>
<g xmlns="http://www.w3.org/2000/svg">
</g>
<g xmlns="http://www.w3.org/2000/svg">
</g>
<g xmlns="http://www.w3.org/2000/svg">
</g>
<g xmlns="http://www.w3.org/2000/svg">
</g>
</g></svg>
